# xmcd CD database file
#
# Track frame offsets:
#	150
#	16374
#	30965
#	45931
#	62051
#	76508
#	91609
#	105407
#	120191
#	138722
#	152551
#	167773
#
# Disc length: 2436 seconds
#
# Revision: 1
# Processed by: cddbd v1.5.2PL0 Copyright (c) Steve Scherf et al.
# Submitted via: CDex 1.51
#
DISCID=7609820c
DTITLE=Parmalee - Feels Like Carolina
DYEAR=2013
DGENRE=Country
TTITLE0=Musta Had A Good Time
TTITLE1=Day Drinkin'
TTITLE2=Move
TTITLE3=Close Your Eyes
TTITLE4=Dance
TTITLE5=Carolina
TTITLE6=Think You Oughta Know That
TTITLE7=Back In The Day
TTITLE8=My Montgomery
TTITLE9=Already Callin' You Mine
TTITLE10=I'll Bring The Music
TTITLE11=Another Day Gone
EXTD=YEAR: 2013
EXTT0=
EXTT1=
EXTT2=
EXTT3=
EXTT4=
EXTT5=
EXTT6=
EXTT7=
EXTT8=
EXTT9=
EXTT10=
EXTT11=
PLAYORDER=
